<svg xmlns="http://www.w3.org/2000/svg" width="248.615" height="260.811" viewBox="0 0 248.615 260.811"><g transform="translate(15533.153 11902.178)"><circle cx="109.816" cy="109.816" r="109.816" transform="translate(-15504.17 -11902.178)" fill="#364550"/><g transform="translate(-15533.153 -11892.385)"><g transform="translate(103.85 34.443)"><path d="M176.223,285.88c-10.845,22.814-31.789,28.8-44.883,29.175l10.845,17.951c13.293-2.346,34.038-19.825,41.14-44.508Z" transform="translate(-131.34 -173.949)" fill="#90d3ca"/><path d="M98.672,322.927c-8.372,3.349-43.8,2.2-54.871-.1-3.665-11.2-2-40.1,1.066-49.254,9.847-1.431,37.119-3.12,46.966-4.2C93.98,283.35,97.1,308.831,98.672,322.927Z" transform="translate(-3.061 -165.481)" fill="#d8f1e3"/><path d="M122.226,294.84c-2.555-.01-7.082,22.75-6.337,25.739s4.682,6.732,6.746,6.737,5.525-4.463,5.787-8.2S124.484,294.845,122.226,294.84Z" transform="translate(-68.888 -178.548)" fill="#e20e00"/><path d="M38.807,281.48l-5.155,7.8c11.935,25.087,4.128,26.06-17.552,26.051l2.239,13.955C61.226,333.528,68.576,320.624,38.807,281.48Z" transform="translate(51.26 -171.691)" fill="#90d3ca"/><path d="M39.209,274.83l-4.566,9.662c14.232,25.632,8.187,29.248-16.364,28.552l2.137,12.831C63.3,330.114,68.979,313.974,39.209,274.83Z" transform="translate(49.183 -168.278)" fill="#d8f1e3"/><g transform="translate(34.666 133.537)"><path d="M109.247,334.154a8.338,8.338,0,0,0-13.994-.161c-3.991,5.588,2.117,9.74,4.171,6.269,2.745-4.639,4.137-3.018,5.836-2.648,2.288,2.341,2.273,6.6,2.2,7.442s-3.115.346-5.632-1.592c-2.93-2.259-5.15,4.687-1.163,6.279,5.573,2.224,8.241.239,10.514.662s9.72,5.427,15.829,2.429c4.03-1.976,2.21-8.849.759-11.989C125.2,335.288,109.247,334.154,109.247,334.154Z" transform="translate(-93.929 -330.27)" fill="#ffc78a"/><path d="M113.874,336.7c-2.633-2.706-7.048.375-8.854,2.059a37.819,37.819,0,0,1,1.752,6.532,13.763,13.763,0,0,0,2.361-1.032,2.422,2.422,0,0,0,.969,2.823c.949.711,2.395.5,3.826-.044-.019.9,1.781,1.533,3.037,1.888,2.317.657,6.5-3.49,6.5-3.49S114.424,337.271,113.874,336.7Z" transform="translate(-93.338 -333.022)" fill="#e08e68"/><path d="M119.724,338.922a3.444,3.444,0,0,0-2.575-1.061,14.6,14.6,0,0,0-1.543-1.83c-1.489-1.528-3.548-1.212-5.383-.336a15.729,15.729,0,0,0-1.339-1.543c-2.633-2.706-7.048.375-8.854,2.059s-4.137,4.561-1.635,6.444c1.382,1.042,3.836.1,5.748-.944a2.422,2.422,0,0,0,.969,2.823c.949.711,2.395.5,3.826-.044-.019.9.808,1.275,1.991,1.825,2.288,1.066,6.8-1.6,6.8-1.6S126.119,345.5,119.724,338.922Z" transform="translate(-88.241 -331.713)" fill="#ffc78a"/><path d="M138.49,340.146a12.942,12.942,0,0,1,3.947-3.826C138.991,336.4,138.792,339.06,138.49,340.146Z" transform="translate(-128.599 -333.375)" fill="#e08e68"/><path d="M126.41,345.734a9.285,9.285,0,0,1,4.425-4.814c-3.767,1.339-4.678,2.5-5.695,5.778C125.763,346.756,126.41,345.734,126.41,345.734Z" transform="translate(-110.498 -335.736)" fill="#e08e68"/><path d="M112.132,351.3c.034-1.451,1.514-4.527,6.406-6.367-3.918.638-6.819,3.271-7.068,6.454C112.088,351.443,112.132,351.3,112.132,351.3Z" transform="translate(-91.547 -337.794)" fill="#e08e68"/></g><g transform="translate(10.314)"><g transform="translate(0 45.553)"><path d="M192.442,172.361c.448,8.036-4.113,14.826-10.192,15.162s-12.519-5.836-12.967-13.867,5.262-14.889,11.341-15.23S191.994,164.325,192.442,172.361Z" transform="translate(-169.258 -154.079)" fill="#2f6871"/><path d="M175.3,171.505c-.165-2.95,3.354-9.287,7.52-10.874s9.574,1.592,11.55,5.744C188.593,170.376,175.417,173.628,175.3,171.505Z" transform="translate(-174.088 -155.005)" fill="#407d85"/><ellipse cx="18.033" cy="12.095" rx="18.033" ry="12.095" transform="translate(4.994 37.36) rotate(-93.199)" fill="#074f57"/><path d="M159.53,189.68c.623,9.847,6.445,17.5,13.069,17.133,5.52-.307,9.857-6.084,10.884-13.7C175.627,193.618,167.172,191.637,159.53,189.68Z" transform="translate(-155.533 -170.127)" fill="#0d4546"/></g><g transform="translate(3.141)"><path d="M117.437,178.524c-18.214,3.806-32.69,3.733-40.171,4.449-35.678-20.054-35.62-47.034-22.7-80.9,5.3-13.882,62.44-8.265,66.421,0S120.455,150.78,117.437,178.524Z" transform="translate(-42.806 -75.282)" fill="#ffc88b"/><path d="M78.124,85.334c0-3.334-36.54,6.922-44.391-13.507s25.851-9.915,46.372-.175c8.216-2.619,28.324-.871,9.915,46.873C83.225,105.13,78.124,95.521,78.124,85.334Z" transform="translate(-10.945 -58.072)" fill="#973200"/><path d="M163.407,172.5c-2.049,3.12-19.192,1.017-18.691-2.02s7.394-13.244,10.859-13.536c1.061-.088,4.191-.35,5.5,1.173S165.461,169.379,163.407,172.5Z" transform="translate(-132.072 -107.733)" fill="#ff8663"/><path d="M44.948,131.165a58.406,58.406,0,0,1-9.633,5.783c-.6.292-1.2.589-1.806.881,2.044,4.8,4.7,9.959,7.7,15.848,4.006-10.392,6.187-18.6,7.068-25.067C47.178,129.476,46.063,130.323,44.948,131.165Z" transform="translate(37.874 -93.229)" fill="#7a2503"/><path d="M19.861,171.611s6.07-10.441,14.364-3.266c9.594,8.3-.818,32.023-14.359,23.87C20.1,183.975,19.861,171.611,19.861,171.611Z" transform="translate(54.838 -112.332)" fill="#ffc88b"/><path d="M31.507,182.535s6.235-6.766,9.1-.078c3.383,7.89-2.76,14.476-9.35,11.838C31.39,189.69,31.507,182.535,31.507,182.535Z" transform="translate(45.675 -119.351)" fill="#ff9a7c"/><path d="M77.7,69.08c-.565,1.791-.341,4.2.866,7.35C82.5,86.666,93.646,92.215,120.563,89.158,88.8,86.1,82.129,78.907,77.7,69.08Z" transform="translate(-55.783 -62.675)" fill="#7a2503"/><path d="M141.221,61.888c4.327-8.377,20.112-9.905,24.848,8.508,2.4,9.336,11.964,13.424,6.294,16.8C163.66,92.368,132.318,79.124,141.221,61.888Z" transform="translate(-139.645 -55.922)" fill="#973200"/><path d="M139.648,95.54c6.323,9.93,24.225,15.7,30.475,11.984,2.94-1.747,1.781-3.694-.351-6.464C171.1,105.83,154.188,107.752,139.648,95.54Z" transform="translate(-137.406 -76.256)" fill="#7a2503"/><path d="M154.956,182.6h-.35a26.805,26.805,0,0,1-9.146-1.606,7.644,7.644,0,0,0-.618,1.781c-.5,3.037,16.637,5.14,18.691,2.02a6.837,6.837,0,0,0,.662-3.962A20.244,20.244,0,0,1,154.956,182.6Z" transform="translate(-132.256 -120.032)" fill="#ff544c"/><ellipse cx="2.453" cy="5.349" rx="2.453" ry="5.349" transform="translate(42.978 44.02)" fill="#2a0000"/><ellipse cx="2.453" cy="5.349" rx="2.453" ry="5.349" transform="translate(9.836 42.828)" fill="#2a0000"/><path d="M94.095,201.164s11.891-.3,37.6-9.214C133.224,226.212,103.114,219.933,94.095,201.164Z" transform="translate(-75.094 -125.739)" fill="#d83536"/></g><g transform="translate(48.491 13.079)"><path d="M47.834,123.138S54.21,93.5,39.4,83.293c8.43-3.568,17.625,12.266,12.772,37.8A42.08,42.08,0,0,1,47.834,123.138Z" transform="translate(-15.594 -82.793)" fill="#a1d8ce"/><path d="M41.42,140.847c1.227-.165,2.5-.375,3.758-.657a75.825,75.825,0,0,1-1.256,10.368A42.077,42.077,0,0,1,39.58,152.6,73.954,73.954,0,0,0,40.9,140.915C41.069,140.886,41.245,140.871,41.42,140.847Z" transform="translate(-7.335 -112.252)" fill="#89ccc2"/><g transform="translate(0 63.752)"><path d="M74.115,213.77c-3.105,9.161-8.6,14.32-18.545,15.829l.482,3.466c10.416-.433,19.046-8.688,20.351-17.177Z" transform="translate(-46.343 -213.77)" fill="#0d4546"/><path d="M101.978,250.337l-3.831.535a3.785,3.785,0,0,1-4.278-3.227l-.049-.341a3.785,3.785,0,0,1,3.227-4.278l3.831-.535a3.785,3.785,0,0,1,4.278,3.227l.049.341A3.788,3.788,0,0,1,101.978,250.337Z" transform="translate(-93.783 -228.492)" fill="#0d4546"/><path d="M98.615,244.077l3.412-.477a2.911,2.911,0,0,1,3.48,2.112h0c.195,1.407-1.217,1.485-2.94,1.728l-3.417.433c-1.723.243-3.1.594-3.3-.813h0A2.892,2.892,0,0,1,98.615,244.077Z" transform="translate(-95.063 -229.061)" fill="#074f57"/></g><g transform="translate(22.823 35.018)"><ellipse cx="12.095" cy="18.033" rx="12.095" ry="18.033" transform="translate(24.152 37.36) rotate(-176.801)" fill="#074f57"/><path d="M42.733,194.91c-.623,9.847-6.444,17.5-13.069,17.133-5.52-.307-9.857-6.084-10.884-13.7C26.631,198.848,35.086,196.867,42.733,194.91Z" transform="translate(-17.588 -175.356)" fill="#0d4546"/><path d="M10.61,177.591c-.448,8.036,4.113,14.826,10.192,15.162s12.519-5.836,12.967-13.867S28.507,164,22.428,163.656,11.062,169.555,10.61,177.591Z" transform="translate(-4.657 -159.308)" fill="#2f6871"/><path d="M32.119,176.735c.165-2.95-3.354-9.287-7.52-10.874s-9.574,1.592-11.55,5.744C18.826,175.606,32,178.858,32.119,176.735Z" transform="translate(-4.19 -160.233)" fill="#407d85"/></g></g></g><path d="M100.668,264.28a322.018,322.018,0,0,1-48.971,3.7l-.316,7.228,7.423,1.572,5.515-6.956,6.391,7.213c10.957-1.339,20.964-2.94,31.444-6.7Z" transform="translate(-11.248 -162.863)" fill="#ffffef"/><path d="M118.235,276.233c1.173-2.687,10.032-2.911,10.212-.088s-2.414,6.96-5.3,6.576S117.344,278.273,118.235,276.233Z" transform="translate(-70.013 -167.914)" fill="#e20e00"/></g><g transform="translate(31.097 115.612)"><path d="M279.246,362.122H222.166a2.747,2.747,0,0,1-2.731-2.453l-.355-3.315,59.733-.414Z" transform="translate(-197.216 -291.076)" fill="#0a3e4f"/><path d="M220.934,225.169s-1.616.516-.964,2.877c.788,2.852,14.573,47.944,18.1,58.575a3.422,3.422,0,0,0,3.125,2.341c7.063.258,57.212.618,57.932.793,0,0,2.555-1.3,2.346-2.064,0,0-18.156-63.987-19.431-64.951C282.044,222.74,225.928,224.809,220.934,225.169Z" transform="translate(-219.815 -222.71)" fill="#0a3e4f"/><path d="M223.367,223.716l17.781,63.832a1.418,1.418,0,0,1-.983,1.747l-1.314.365a1.418,1.418,0,0,1-1.747-.983l-17.114-62.449a3.029,3.029,0,0,1,.477-2.75l1.154-.745A1.416,1.416,0,0,1,223.367,223.716Z" transform="translate(-159.546 -222.679)" fill="#192329"/><path d="M179,357.84l-5.933-.711.034-.978-4.8-.467-.029.9-2.288-.127.019-1.1-4.8-.214-.029.784-2.074-.127.029-.9-4.8-.214-.029.813-2.293-.141.024-.784-4.8-.214-.024.7-5.588-.341a1.6,1.6,0,0,0-1.582,1.7v3.256a1.612,1.612,0,0,0,1.5,1.7H178.9a1.612,1.612,0,0,0,1.5-1.7v-.141A1.6,1.6,0,0,0,179,357.84Z" transform="translate(-59.887 -290.265)" fill="#192329"/></g><g transform="translate(23.459 186.544)"><rect width="81.963" height="64.474" transform="translate(107.4)" fill="#a1d8ce"/><path d="M14.26,386.223l81.963,16.024V372.58H14.26Z" transform="translate(93.14 -370.55)" fill="#89ccc2"/><rect width="91.907" height="8.718" transform="translate(104.397)" fill="#a1d8ce"/><path d="M189.876,432.884h92.131V368.41H181.82Z" transform="translate(-174.202 -368.41)" fill="#e5ffef"/><path d="M282.007,384.083V368.41H181.82l1.46,11.662Z" transform="translate(-174.202 -368.41)" fill="#a1d8ce"/><rect width="114.745" height="8.718" transform="translate(0)" fill="#e5ffef"/></g><ellipse cx="52.237" cy="41.897" rx="52.237" ry="41.897" fill="#a6b9be"/><path d="M258.44,138.329l25.406,13.066-10.2-20.154Z" transform="translate(-190.798 -61.761)" fill="#a6b9be"/><g transform="translate(24.493 35.22)"><ellipse cx="4.892" cy="4.892" rx="4.892" ry="4.892" transform="translate(9.454 13.579) rotate(-165.09)" fill="#407d85"/><circle cx="4.892" cy="4.892" r="4.892" transform="translate(28.565 13.836) rotate(-135)" fill="#407d85"/><circle cx="4.892" cy="4.892" r="4.892" transform="translate(54.778 13.474) rotate(-166.661)" fill="#407d85"/></g></g></g></svg>